<?xml version="1.0" encoding="utf-8"?>
<?xml-stylesheet type="text/xsl" href="rss1.xsl"?>
<rss version="2.0" xmlns:atom="http://www.w3.org/2005/Atom" xmlns:content="http://purl.org/rss/1.0/modules/content/" xmlns:dc="http://purl.org/dc/elements/1.1/" xmlns:media="http://search.yahoo.com/mrss/">
<channel>
 <title>Getty</title>
 <link>http://www.gettyimg.com/</link>
 <atom:link href="http://www.gettyimg.com/" rel="self" type="application/rss+xml" />

 
                <item>
                <title><![CDATA[【Apple Music】WEB-RiP - Old Gods of Asgard - Herald of Darkness (feat. Alan Wake &amp; Mr Door) [Apple Music HEVC FLAC 24-Bit 2160p]]]></title>
                <link><![CDATA[https://sharemania.us/threads/old-gods-of-asgard-herald-of-darkness-feat-alan-wake-mr-door-apple-music-hevc-flac-24-bit-2160p.234095/]]></link>
                <description><![CDATA[<article>
<blockquote class="messageText SelectQuoteContainer ugc baseHtml">
<img src="https://images2.imgbox.com/a4/62/615s4am0_o.jpg" class="bbCodeImage LbImage" alt="[​IMG]" data-url="https://images2.imgbox.com/a4/62/615s4am0_o.jpg" style=""><br>
<img src="https://images2.imgbox.com/70/0b/gZGg6mVg_o.jpg" class="bbCodeImage LbImage" alt="[​IMG]" data-url="https://images2.imgbox.com/70/0b/gZGg6mVg_o.jpg" style=""><br>
<img src="https://images2.imgbox.com/79/ae/WZcBlAWF_o.jpg" class="bbCodeImage LbImage" alt="[​IMG]" data-url="https://images2.imgbox.com/79/ae/WZcBlAWF_o.jpg" style=""><br>
<img src="https://images2.imgbox.com/cb/5c/HH8RMrF2_o.jpg" class="bbCodeImage LbImage" alt="[​IMG]" data-url="https://images2.imgbox.com/cb/5c/HH8RMrF2_o.jpg" style=""><br>
<img src="https://images2.imgbox.com/9e/6c/FH4WuEfq_o.jpg" class="bbCodeImage LbImage" alt="[​IMG]" data-url="https://images2.imgbox.com/9e/6c/FH4WuEfq_o.jpg" style=""><img src="https://images2.imgbox.com/39/1f/Hrn8QdwH_o.jpg" class="bbCodeImage LbImage" alt="[​IMG]" data-url="https://images2.imgbox.com/39/1f/Hrn8QdwH_o.jpg" style=""><br>
<br>
<div class="ToggleTriggerAnchor bbCodeSpoilerContainer">
<button type="button" class="button bbCodeSpoilerButton ToggleTrigger Tooltip JsOnly" data-target="> .SpoilerTarget"><span>Spoiler: <span class="SpoilerTitle">Details</span></span></button>
<div class="SpoilerTarget bbCodeSpoilerText">Format : Matroska<br>
Format version : Version 4<br>
File size : 1.74 GiB<br>
Duration : 9 min 26 s<br>
Overall bit rate mode : Variable<br>
Overall bit rate : 26.4 Mb/s<br>
Frame rate : 30.000 FPS<br>
Encoded date : 2023-12-16 10:11:09 UTC<br>
Writing application : mkvmerge v51.0.0 ('I Wish') 64-bit<br>
Writing library : libebml v1.4.0 + libmatroska v1.6.2<br>
Cover : Yes<br>
Attachments : cover.jpg<br>
Video<br>
ID : 1<br>
Format : HEVC<br>
Format/Info : High Efficiency Video Coding<br>
Format profile : Main 10@L5@High<br>
Codec ID : V_MPEGH/ISO/HEVC<br>
Duration : 9 min 26 s<br>
Bit rate : 24.6 Mb/s<br>
Width : 3 840 pixels<br>
Height : 2 160 pixels<br>
Display aspect ratio : 16:9<br>
Frame rate mode : Constant<br>
Frame rate : 30.000 FPS<br>
Color space : YUV<br>
Chroma subsampling : 4:2:0<br>
Bit depth : 10 bits<br>
Bits/(Pixel*Frame) : 0.099<br>
Stream size : 1.62 GiB (93%)<br>
Default : Yes<br>
Forced : No<br>
Color range : Limited<br>
Color primaries : BT.709<br>
Transfer characteristics : BT.709<br>
Matrix coefficients : BT.709<br>
Audio<br>
ID : 2<br>
Format : FLAC<br>
Format/Info : Free Lossless Audio Codec<br>
Codec ID : A_FLAC<br>
Duration : 9 min 26 s<br>
Bit rate mode : Variable<br>
Bit rate : 1 770 kb/s<br>
Channel(s) : 2 channels<br>
Channel layout : L R<br>
Sampling rate : 48.0 kHz<br>
Frame rate : 11.720 FPS (4096 SPF)<br>
Bit depth : 24 bits<br>
Compression mode : Lossless<br>
Stream size : 120 MiB (7%)<br>
Writing library : libFLAC 1.3.1 (2014-11-25)<br>
Default : Yes<br>
Forced : No<br>
MD5 of the unencoded conten : B955854380C0F8C89525033A30277B0C</div>
</div>
<div class="bbCodeBlock bbCodeVfcHH HiddenContent">
<div class="attribution type">Hidden Content:</div>
<blockquote>You must reply before you can see the hidden data contained here.</blockquote>
</div>
<div class="messageTextEndMarker">&nbsp;</div>
</blockquote>
</article>]]></description>
                <author><![CDATA[thankstome]]></author>
                </item>

                </channel></rss>